<?xml version="1.0" encoding="UTF-8"?>
<!DOCTYPE svg PUBLIC "-//W3C//DTD SVG 1.1//EN" "http://www.w3.org/Graphics/SVG/1.1/DTD/svg11.dtd">
<!-- Creator: CorelDRAW -->
<svg xmlns="http://www.w3.org/2000/svg" xml:space="preserve" width="122.21mm" height="35.3882mm" version="1.1" style="shape-rendering:geometricPrecision; text-rendering:geometricPrecision; image-rendering:optimizeQuality; fill-rule:evenodd; clip-rule:evenodd"
viewBox="0 0 12219.98 3538.52"
 xmlns:xlink="http://www.w3.org/1999/xlink"
 xmlns:xodm="http://www.corel.com/coreldraw/odm/2003">
 <defs>
  <style type="text/css">
   <![CDATA[
    .fil0 {fill:black;fill-rule:nonzero}
   ]]>
  </style>
 </defs>
 <g id="Capa_x0020_1">
  <metadata id="CorelCorpID_0Corel-Layer"/>
  <path class="fil0" d="M7446.07 430.61l-481.25 0 0 1689.73 321.48 0 0 229.79 -321.48 0 0 1188.38 -229.78 0 0 -3222.8 0 -114.89 114.89 0 596.14 0 0 229.79zm-3426.32 126.12c211.59,-74.54 432.33,-71.71 660.83,0.39 16.52,-19 33.68,-37.43 51.48,-55.22 194.76,-194.76 463.84,-315.25 761.02,-315.25 297.14,0 566.26,120.49 761.02,315.25 194.75,194.75 315.25,463.84 315.25,761.02 0,297.14 -120.5,566.26 -315.25,761.02 -194.76,194.75 -463.88,315.25 -761.02,315.25 -297.18,0 -566.26,-120.5 -761.02,-315.25 -194.75,-194.76 -315.25,-463.88 -315.25,-761.02 0,-195.78 52.31,-379.37 143.68,-537.53 -138.48,-31.27 -278.11,-29.62 -418.84,2.51 90.48,157.6 142.23,340.28 142.23,535.02 0,297.14 -120.5,566.26 -315.26,761.02 -194.75,194.75 -463.87,315.25 -761,315.25 -297.19,0 -566.27,-120.5 -761.02,-315.25 -194.76,-194.76 -315.25,-463.88 -315.25,-761.02 0,-297.18 120.49,-566.27 315.25,-761.02 194.75,-194.76 463.83,-315.25 761.02,-315.25 297.13,0 566.25,120.49 761,315.25 17.68,17.67 34.73,35.97 51.15,54.83zm3902.72 2173.63l0 -2295.2 -236.8 0 0 -229.78 2623.94 0 0 229.78 -2157.35 0 0 2295.2 -229.79 0zm1502.66 -2169.04c297.18,0 566.27,120.5 761.02,315.25 194.75,194.76 315.25,463.83 315.25,761.01 0,297.14 -120.5,566.27 -315.25,761.02 -194.75,194.75 -463.84,315.25 -761.02,315.25 -297.14,0 -566.26,-120.5 -761.01,-315.25 -194.75,-194.75 -315.25,-463.88 -315.25,-761.02 0,-297.18 120.5,-566.25 315.25,-761.01 194.75,-194.75 463.87,-315.25 761.01,-315.25zm598.58 477.69c-153.16,-153.16 -364.8,-247.91 -598.58,-247.91 -233.76,0 -445.41,94.75 -598.58,247.91 -153.16,153.17 -247.91,364.8 -247.91,598.58 0,233.77 94.75,445.42 247.91,598.59 153.17,153.16 364.82,247.9 598.58,247.9 233.78,0 445.42,-94.74 598.58,-247.9 153.17,-153.17 247.91,-364.82 247.91,-598.59 0,-233.78 -94.74,-445.41 -247.91,-598.58zm651.33 1683.45l0 -2425 0 -114.89 114.89 0 358.44 0c295.86,0 563.78,119.95 757.71,313.88 193.92,193.91 313.88,461.83 313.88,757.69 0,295.87 -119.95,563.79 -313.87,757.7 -193.92,193.91 -461.84,313.88 -757.72,313.88l-243.55 0 0 396.73 -229.78 0zm229.78 -2310.11l0 1683.61 243.55 0c232.48,0 442.96,-94.23 595.28,-246.54 152.32,-152.31 246.54,-362.8 246.54,-595.27 0,-232.46 -94.22,-442.93 -246.56,-595.26 -152.3,-152.31 -362.8,-246.54 -595.26,-246.54l-243.55 0zm-4813.17 252c-153.17,-153.15 -364.82,-247.9 -598.58,-247.9 -233.78,0 -445.42,94.75 -598.58,247.9 -153.17,153.17 -247.91,364.81 -247.91,598.59 0,233.76 94.74,445.42 247.91,598.58 153.16,153.16 364.8,247.91 598.58,247.91 233.76,0 445.41,-94.75 598.58,-247.91 153.16,-153.16 247.91,-364.82 247.91,-598.58 0,-233.78 -94.75,-445.42 -247.91,-598.59zm-2285.49 0c-153.16,-153.15 -364.82,-247.9 -598.57,-247.9 -233.79,0 -445.43,94.75 -598.59,247.9 -153.16,153.17 -247.91,364.81 -247.91,598.59 0,233.76 94.75,445.42 247.91,598.58 153.16,153.16 364.8,247.91 598.59,247.91 233.75,0 445.41,-94.75 598.57,-247.91 153.16,-153.16 247.91,-364.82 247.91,-598.58 0,-233.78 -94.75,-445.42 -247.91,-598.59zm-3806.17 2874.17l0 -3423.63 0 -114.89 114.89 0 469.77 0c377.93,0 720.1,153.22 967.8,400.91 247.68,247.66 400.91,589.86 400.91,967.79 0,377.92 -153.21,720.1 -400.91,967.8 -191.63,191.64 -439.81,326.71 -717.36,378.03l412.22 824 -255.82 0 -400.81 -801.15 -6.04 0.04 -354.88 0 0 801.11 -229.78 0zm229.78 -3308.74l0 2277.83 354.88 0c314.51,0 599.27,-127.49 805.35,-333.57 206.07,-206.07 333.57,-490.84 333.57,-805.35 0,-314.51 -127.5,-599.28 -333.57,-805.34 -206.08,-206.08 -490.84,-333.57 -805.35,-333.57l-354.88 0z"/>
 </g>
</svg>
