<?xml version="1.0" encoding="UTF-8"?>
<!DOCTYPE svg PUBLIC "-//W3C//DTD SVG 1.1//EN" "http://www.w3.org/Graphics/SVG/1.1/DTD/svg11.dtd">
<!-- Creator: CorelDRAW -->
<svg xmlns="http://www.w3.org/2000/svg" xml:space="preserve" width="109.686mm" height="23.0223mm" version="1.1" style="shape-rendering:geometricPrecision; text-rendering:geometricPrecision; image-rendering:optimizeQuality; fill-rule:evenodd; clip-rule:evenodd"
viewBox="0 0 2364.56 496.31"
 xmlns:xlink="http://www.w3.org/1999/xlink"
 xmlns:xodm="http://www.corel.com/coreldraw/odm/2003">
 <defs>
  <style type="text/css">
   <![CDATA[
    .fil0 {fill:black}
   ]]>
  </style>
 </defs>
 <g id="Capa_x0020_1">
  <metadata id="CorelCorpID_0Corel-Layer"/>
  <path class="fil0" d="M2315.92 110.09l6.18 0 0 -17.05 6.66 0 11.24 17.05 6.19 0 -11.62 -17.52c3.32,-0.38 5.97,-1.49 7.97,-3.33 2,-1.84 3,-4.48 3,-7.92 0,-7.93 -4.63,-11.9 -13.87,-11.9l-15.74 0 0 40.67zm6.18 -22.67l0 -12.37 8.44 0c2.69,0 4.82,0.39 6.42,1.17 1.6,0.78 2.39,2.39 2.39,4.82 0,1.44 -0.27,2.6 -0.8,3.47 -0.53,0.87 -1.28,1.51 -2.25,1.92 -0.97,0.41 -2.03,0.67 -3.18,0.79 -1.15,0.13 -2.6,0.19 -4.35,0.19l-6.66 0zm-27.07 2.16c0,4.75 0.89,9.23 2.66,13.45 1.78,4.22 4.29,7.93 7.5,11.15 3.22,3.22 6.93,5.72 11.15,7.5 4.21,1.78 8.7,2.67 13.45,2.67 4.75,0 9.23,-0.89 13.44,-2.67 4.22,-1.78 7.94,-4.27 11.15,-7.5 3.22,-3.21 5.72,-6.93 7.5,-11.15 1.78,-4.22 2.67,-8.7 2.67,-13.45 0,-4.75 -0.9,-9.23 -2.67,-13.45 -1.78,-4.22 -4.28,-7.94 -7.5,-11.16 -3.21,-3.21 -6.93,-5.71 -11.15,-7.49 -4.22,-1.78 -8.7,-2.67 -13.44,-2.67 -4.75,0 -9.24,0.89 -13.45,2.67 -4.22,1.78 -7.94,4.28 -11.15,7.49 -3.21,3.22 -5.71,6.94 -7.5,11.16 -1.78,4.22 -2.66,8.7 -2.66,13.45zm34.77 29.14c-3.88,0 -7.55,-0.75 -11.01,-2.25 -3.46,-1.5 -6.53,-3.59 -9.19,-6.27 -2.66,-2.69 -4.71,-5.81 -6.18,-9.37 -1.47,-3.56 -2.21,-7.31 -2.21,-11.24 0,-4 0.74,-7.76 2.21,-11.3 1.47,-3.53 3.51,-6.64 6.13,-9.32 2.62,-2.69 5.68,-4.78 9.19,-6.28 3.5,-1.5 7.18,-2.25 11.06,-2.25 3.87,0 7.56,0.75 11.05,2.25 3.5,1.5 6.56,3.6 9.19,6.28 2.63,2.68 4.67,5.79 6.14,9.32 1.47,3.54 2.2,7.3 2.2,11.3 0,3.94 -0.74,7.68 -2.2,11.24 -1.47,3.56 -3.51,6.69 -6.14,9.37 -2.63,2.68 -5.68,4.78 -9.19,6.27 -3.49,1.5 -7.18,2.25 -11.05,2.25zm-2227.71 62.9c2.54,0.19 5.26,0.28 8.08,0.38 2.91,0.09 7.05,0.19 12.6,0.19 36.66,0 62.09,-6.35 76.14,-19.08 14.05,-12.73 21.06,-35.72 21.06,-69 0,-30.73 -5.34,-52 -16.07,-63.64 -10.79,-11.67 -30.84,-17.48 -60.26,-17.48 -18.52,0 -30.08,1.97 -34.69,5.92 -4.61,3.95 -6.86,12.51 -6.86,25.76l0 136.96zm979.27 215.13l0 -11 3.75 0c14.03,0 23.83,-4.31 29.42,-12.84 5.66,-8.53 8.45,-24.4 8.45,-47.43l0 -228.55c0,-10.12 -1.51,-16.82 -4.46,-20.09 -2.95,-3.27 -9.73,-4.86 -20.33,-4.86l-16.82 0 0 -10.52 94.07 0 58.91 244.9 58.03 -244.9 95.58 0 0 10.52 -12.59 0c-11.08,0 -18.41,1.84 -22.08,5.58 -3.67,3.74 -5.5,11.16 -5.5,22.16l0 258.29c0,11 1.83,18.41 5.5,22.16 3.66,3.75 10.99,5.58 22.08,5.58l12.59 0 0 11 -123.88 0 0 -11 13.56 0c11.08,0 18.41,-1.84 22.08,-5.58 3.67,-3.75 5.5,-11.16 5.5,-22.16l0 -283.95 -77.88 322.7 -11.16 0 -78.84 -320.78 0 251.43c0,23.84 2.55,39.46 7.57,47.03 5.1,7.58 14.35,11.32 27.74,11.32l6.29 0 0 11 -97.57 0zm1102.7 -168.05c0,-56.52 -5.66,-98.05 -16.9,-124.6 -11.32,-26.54 -28.94,-39.78 -52.93,-39.78 -23.99,0 -41.61,13.23 -52.93,39.78 -11.24,26.54 -16.9,68.08 -16.9,124.6 0,56.52 5.66,98.13 16.9,124.76 11.32,26.62 28.94,39.94 52.93,39.94 23.83,0 41.45,-13.32 52.77,-39.94 11.4,-26.63 17.06,-68.24 17.06,-124.76zm-70.31 -175.38c35.08,0 64.01,16.26 86.81,48.78 22.8,32.61 34.2,74.78 34.2,126.59 0,51.74 -11.48,93.91 -34.36,126.68 -22.88,32.68 -51.74,49.02 -86.65,49.02 -34.99,0 -63.85,-16.26 -86.57,-48.79 -22.64,-32.6 -33.96,-74.85 -33.96,-126.91 0,-51.97 11.32,-94.22 33.96,-126.67 22.72,-32.44 51.57,-48.71 86.57,-48.71zm-432.94 343.42l0 -11 3.75 0c14.03,0 23.83,-4.31 29.42,-12.84 5.66,-8.53 8.45,-24.4 8.45,-47.43l0 -228.55c0,-10.12 -1.51,-16.82 -4.46,-20.09 -2.95,-3.27 -9.72,-4.86 -20.33,-4.86l-16.82 0 0 -10.52 94.07 0 58.91 244.9 58.04 -244.9 95.58 0 0 10.52 -12.6 0c-11.08,0 -18.41,1.84 -22.08,5.58 -3.67,3.74 -5.5,11.16 -5.5,22.16l0 258.29c0,11 1.83,18.41 5.5,22.16 3.67,3.75 11,5.58 22.08,5.58l12.6 0 0 11 -123.88 0 0 -11 13.56 0c11.08,0 18.41,-1.84 22.08,-5.58 3.67,-3.75 5.5,-11.16 5.5,-22.16l0 -283.95 -77.88 322.7 -11.16 0 -78.84 -320.78 0 251.43c0,23.84 2.55,39.46 7.57,47.03 5.1,7.58 14.35,11.32 27.74,11.32l6.3 0 0 11 -97.58 0zm-272.84 0l0 -11.48 14.27 0c11.4,0 18.9,-1.83 22.48,-5.5 3.59,-3.67 5.34,-10.92 5.34,-21.76l0 -258.29c0,-10.76 -1.75,-17.94 -5.18,-21.68 -3.43,-3.75 -10.13,-5.58 -20.09,-5.58l-2.55 0 -14.27 0 0 -11 236.28 0 0.48 106.66 -10.52 0c-4.94,-35.32 -14.67,-60.11 -29.1,-74.3 -14.35,-14.27 -37.39,-21.36 -68.96,-21.36 -18.09,0 -29.57,1.52 -34.36,4.62 -4.87,3.11 -7.25,11.32 -7.25,24.47l0 113.44 8.45 0c24.15,0 41.45,-4.54 51.74,-13.63 10.29,-9.17 16.42,-25.03 18.25,-47.59l11.01 0 0 138.23 -11.01 0c-0.64,-22.48 -6.22,-39.22 -16.82,-50.3 -10.68,-11.08 -26.39,-16.66 -47.35,-16.66 -2.63,0 -6.93,0.24 -12.84,0.72 -0.64,0.16 -1.11,0.24 -1.43,0.24l0 121.49c0,17.46 1.83,28.06 5.5,31.97 3.67,3.91 13.87,5.82 30.69,5.82 33.64,0 58.51,-7.73 74.54,-23.12 16.03,-15.39 26.94,-42.09 32.68,-80.2l11.08 0 -5.98 114.79 -235.09 0zm-490.68 -293.2c0,-13.07 -1.09,-21.46 -3.19,-25.11 -2.08,-3.63 -5.9,-5.5 -11.56,-5.5 -14.74,0 -27.79,9.9 -39.06,29.57 -11.29,19.7 -19.53,47.12 -24.71,82.35l-10.44 0 5.34 -123.4 211.73 0 5.34 123.4 -10.68 0c-5.03,-35.23 -13.18,-62.64 -24.47,-82.35 -11.26,-19.67 -24.31,-29.57 -39.06,-29.57 -5.66,0 -9.48,1.87 -11.56,5.5 -2.1,3.66 -3.19,12.09 -3.19,25.11l0 323.67c0,11.03 1.85,18.52 5.5,22.24 3.65,3.72 11.08,5.58 22.16,5.58l17.78 0 0 11 -135.36 0 0 -11 17.53 0c11.24,0 18.74,-1.83 22.4,-5.58 3.66,-3.75 5.5,-11.16 5.5,-22.24l0 -323.67zm-265.28 173.62l91.28 0 -45.12 -166.45 -46.15 166.45zm-81.39 119.58l0 -11 0.96 0c12.43,0 22.92,-4.67 31.41,-14.12 8.49,-9.44 15.56,-24.23 21.13,-44.32l73.66 -265.86 29.57 0 78.04 277.34c5.24,18.61 10.68,30.93 16.66,36.67 5.98,5.74 15.15,9.17 27.43,10.29l0 11 -115.75 0 0 -11c10.68,-0.32 18.64,-2.09 23.75,-5.34 5.17,-3.28 7.73,-8.21 7.73,-14.75 0,-2.95 -0.28,-6.06 -0.79,-9.33 -0.52,-3.27 -1.54,-7.48 -2.95,-12.68l-13.55 -49.74 -100.84 0 -12.84 47.19c-1.01,3.73 -1.6,7.33 -2.07,10.84 -0.47,3.51 -0.72,6.62 -0.72,9.25 0,8.29 2.62,14.37 7.89,18.26 5.33,3.93 13.95,5.98 25.91,6.3l0 11 -94.62 0zm-258.96 0l0 -11.48 14.27 0c11.4,0 18.89,-1.83 22.48,-5.5 3.59,-3.67 5.34,-10.92 5.34,-21.76l0 -258.29c0,-10.76 -1.75,-17.94 -5.18,-21.68 -3.43,-3.75 -10.13,-5.58 -20.09,-5.58l-2.55 0 -14.27 0 0 -11 236.28 0 0.48 106.66 -10.52 0c-4.95,-35.32 -14.71,-60.07 -29.1,-74.3 -14.39,-14.22 -37.39,-21.36 -68.96,-21.36 -18.1,0 -29.56,1.53 -34.36,4.62 -4.85,3.13 -7.25,11.32 -7.25,24.47l0 113.44 8.45 0c24.15,0 41.47,-4.52 51.74,-13.63 10.3,-9.14 16.42,-25.03 18.25,-47.59l11.01 0 0 138.23 -11.01 0c-0.64,-22.48 -6.2,-39.24 -16.82,-50.3 -10.66,-11.1 -26.38,-16.66 -47.35,-16.66 -2.63,0 -6.95,0.15 -12.84,0.72 -0.65,0.06 -1.11,0.24 -1.43,0.24l0 121.49c0,17.46 1.83,28.06 5.5,31.97 3.67,3.91 13.87,5.82 30.69,5.82 33.64,0 58.51,-7.73 74.54,-23.12 16.02,-15.38 26.94,-42.09 32.68,-80.2l11.08 0 -5.98 114.79 -235.09 0zm-209.57 -202.16l0 145.99c0,18.89 2.07,30.65 6.3,35.34 3.04,3.37 8.48,5.53 16.35,6.49 -1.49,-8.03 -1.61,-18.38 -1.61,-22.88l0 -141.64c1.18,-0.05 2.35,-0.09 3.53,-0.12 4.18,-0.13 8.36,-0.19 12.54,-0.19 20.23,0 47.4,1.97 66.76,12.71 0.59,1.08 1.16,2.18 1.7,3.32 -18.53,-7.77 -41.82,-9.3 -59.69,-9.3 -4.18,0 -8.36,0.05 -12.54,0.19 -1.17,0.04 -2.35,0.07 -3.53,0.12l0 141.64c0,3.39 0.07,10.1 0.74,16.64l-1 0.02c1.15,0.04 2.33,0.06 3.56,0.06 33.65,0 57.13,-7.17 70.69,-21.53 13.51,-14.31 20.3,-38.73 20.3,-73.23 0,-34.31 -7.66,-58.61 -23.12,-72.85 -15.46,-14.24 -42.21,-21.34 -80.28,-21.34 -5.55,0 -9.77,0.09 -12.69,0.19 -2.91,0.09 -5.64,0.19 -7.99,0.37zm-102.09 200.79l0 -12.41 16.83 0c13.07,0 21.81,-2.25 26.22,-6.76 4.42,-4.51 6.58,-13.35 6.58,-26.51l0 -304.56c0,-12.6 -2.08,-21.15 -6.11,-25.57 -4.04,-4.42 -11.94,-6.58 -23.69,-6.58l-3.01 0 -16.83 0 0 -12.97 157.17 0c39.48,0 69.56,7.71 90.34,23.22 20.77,15.51 31.11,38.08 31.11,67.59 0,23.31 -9.14,43.87 -27.26,61.76 -18.17,17.93 -41.83,29.05 -71.07,33.47 33.65,6.95 59.71,19.53 78.12,37.6 18.35,18.02 27.54,40.14 27.54,66.27 0,17.2 -4.52,33.65 -13.63,49.16 -9.12,15.51 -21.4,28.07 -37.13,37.6 -10.96,6.64 -24.07,11.37 -39.29,14.29 -15.13,2.9 -35.43,4.42 -60.71,4.42l0.06 0.16 -0.54 -0.16 -134.7 0zm1409 -312.86l8.76 0 0 19.74 -17.2 0c-4.9,0 -15.06,0.39 -18.79,4.2 -3.77,3.85 -4.19,13.96 -4.19,18.94 0,86.1 0,168.38 0,254.47 -2.65,0 -6.03,0.05 -8.76,-1.61l0 -259.59c0,-4.98 0.42,-15.1 4.19,-18.94 3.73,-3.81 13.89,-4.2 18.79,-4.2l17.2 0 0 -13.01zm196.4 92.28l8.76 0 0 147.44 -20.09 0 -0.13 -4.47c-0.02,-0.75 -0.05,-1.5 -0.08,-2.25l11.54 0 0 -140.72zm-46.72 83.81c-7.75,-2.46 -16.11,-3.33 -24.3,-3.33 -3.2,0 -6.45,0.18 -9.66,0.45l0 117.39c0,1.41 0.02,3.73 0.11,6.46 -0.05,0.22 -6.2,0.22 -8.47,-1.01 -0.36,-5.06 -0.4,-9.84 -0.4,-12.17l0 -117.39c3.21,-0.27 6.46,-0.45 9.66,-0.45 10.72,0 21.75,1.5 31.3,6.1 0.63,1.28 1.21,2.6 1.76,3.96zm111.67 44.37l9.11 0 -3.93 75.81c-1.37,1.09 -7.18,1.41 -9.17,1.41l3.99 -77.22zm3.84 99.71l-1.19 24.29 -244.06 0 0 -6.73 235.31 0 0.84 -17.57 9.11 0zm-232.32 -300l-12.93 0 0 -6.73 12.67 0 0.19 0c0.05,1.19 0.08,2.42 0.08,3.71l0 3.01zm223.81 -20.21l8.73 0 0.52 115.87 -19.16 0 -0.55 -3.97c-0.13,-0.91 -0.26,-1.83 -0.4,-2.76l11.35 0 -0.49 -109.15zm-56.3 28.34c-14.83,-6.42 -32.3,-8.13 -47.66,-8.13 -6.69,0 -26.13,0.19 -31.86,3.89 -4.75,3.07 -5.14,15.77 -5.14,20.6l0 80.73 -8.76 1.25 0 -88.71c0,-4.83 0.39,-17.54 5.14,-20.6 5.73,-3.7 25.17,-3.89 31.86,-3.89 17.81,0 38.48,2.29 54.56,11.59 0.63,1.06 1.25,2.15 1.86,3.26zm398.95 -28.55l8.76 0 0 19.73 -17.2 0c-4.9,0 -15.06,0.39 -18.79,4.2 -3.77,3.85 -4.19,13.96 -4.19,18.94 0,86.1 0,168.38 0,254.47 -2.65,0 -6.03,0.05 -8.76,-1.61l0 -259.59c0,-4.98 0.42,-15.09 4.19,-18.94 3.73,-3.81 13.89,-4.2 18.79,-4.2l17.2 0 0 -13.01zm0 324.3l8.76 0 0 20.21 -133.09 0 0 -6.73 124.33 0 0 -13.49zm-112.36 -147.54l-28.7 119.18 -10.38 0 39.08 -162.2 0 43.02zm-34.3 141.94l-6.18 25.81 -18.4 0 -1.66 -6.73 11.3 0 4.64 -19.03 10.3 -0.05zm-95.2 -169.11l0 120.96c0,5.92 0.05,15.59 1.16,24.74 -1.71,0.28 -5.77,0.27 -7.87,-1.23 -1.86,-10.55 -2.05,-23.11 -2.05,-30.24l0 -149.87 8.76 35.64zm32.85 174.71l8.76 0 0 20.21 -106.78 0 0 -6.73 98.02 0 0 -13.49zm-85.58 -304.56l-12.45 0 0 -6.72 12.43 0c0.01,0.46 0.01,0.92 0.01,1.4l0 5.32zm82.71 -19.73l7.14 0 37.56 156.12 -3.55 14.96 -41.15 -171.08zm-387.44 324.54l8.76 0 0 20.21 -133.09 0 0 -6.73 124.34 0 0 -13.49zm-112.36 -147.54l-28.7 119.19 -10.38 0 39.08 -162.21 0 43.02zm-34.31 141.94l-6.18 25.81 -18.4 0 -1.65 -6.73 11.3 0 4.64 -19.03 10.3 -0.05zm-95.2 -169.11l0 120.96c0,5.92 0.05,15.59 1.16,24.74 -1.72,0.28 -5.78,0.27 -7.87,-1.23 -1.86,-10.55 -2.05,-23.11 -2.05,-30.24l0 -149.87 8.76 35.64zm32.85 174.71l8.76 0 0 20.21 -106.78 0 0 -6.73 98.02 0 0 -13.49zm-85.58 -304.56l-12.45 0 0 -6.73 12.43 0c0.01,0.46 0.01,0.92 0.01,1.4l0 5.32zm82.71 -19.74l7.14 0 37.55 156.12 -3.54 14.96 -41.15 -171.08zm1000.17 9.7c12.2,8.42 22.9,19.57 32.25,32.92 26.44,37.76 35.03,83.89 35.03,129.24 0,45.45 -8.72,91.46 -35.19,129.31 -21.99,31.45 -51.43,50.99 -90.43,50.99 -26.44,0 -48.52,-8.89 -66.84,-24.46 16.49,11.37 35.73,17.73 58.08,17.73 38.99,0 68.43,-19.53 90.43,-50.99 26.46,-37.85 35.19,-83.86 35.19,-129.31 0,-45.34 -8.6,-91.48 -35.03,-129.23 -7.04,-10.06 -14.85,-18.87 -23.49,-26.2zm-220.25 33.18c0,498.21 0,-0 0,0zm-1068.31 -14.95c-6.67,5.35 -11.97,12.92 -16.05,20.02 -13.49,23.54 -20.24,54.12 -24.15,80.73l-0.58 3.94 -19.23 0 0.29 -6.73 10.18 0 0.58 -3.93c3.91,-26.6 10.66,-57.19 24.15,-80.73 5.7,-9.95 13.82,-20.81 24.74,-25.22 0.04,1.59 0.06,3.27 0.06,5.03l0 6.9zm157.82 -27.93l8.47 0 5.74 132.62 -19.49 0 -0.56 -3.96c-0.13,-0.92 -0.27,-1.84 -0.41,-2.77l11.7 0 -5.45 -125.89zm-58.74 21.38c-1.95,-0.45 -3.97,-0.69 -6.08,-0.69 -2.86,0 -6.03,0.5 -7.56,3.18 -2.42,4.22 -2.58,18.01 -2.58,22.82 0,106.58 0,212.37 0,318.95 -2.56,-0.09 -7.02,-0.46 -8.76,-2.01l0 -323.67c0,-4.82 0.16,-18.6 2.58,-22.82 1.54,-2.69 4.71,-3.19 7.56,-3.19 4.41,0 8.45,1.05 12.16,2.84 0.63,1.03 1.27,2.09 1.89,3.18 0.26,0.46 0.52,0.92 0.78,1.39zm20.46 372.21l8.76 0 0 20.21 -144.57 0 0 -6.73 135.81 0 0 -13.48zm-280.67 -151.91l-71.8 0 -11.91 43.8c-0.35,1.3 -1.4,5.29 -2.16,11.65 -1.33,0.16 -6.11,-0.09 -9.19,-1.43 0.09,-2.24 0.33,-4.49 0.64,-6.69 0.47,-3.46 1.03,-6.89 1.95,-10.25l11.91 -43.79 78.73 0 1.83 6.72zm-61.3 82.43c1.51,0.1 2.95,0.16 4.28,0.2l4.48 0.12 0 20.09 -103.84 0 0 -6.73 95.08 0 0 -13.68zm62.88 -324.1l6.87 0 78.99 280.7 4.99 15.4c-1.71,-0.01 -4.42,-0.52 -6.87,-1.71 -3.05,-7.23 -5.41,-15.18 -6.89,-20.42l-77.09 -273.97zm121.35 323.77c1.55,0.23 3.08,0.42 4.57,0.55l4.19 0.38 0 19.81 -124.96 0 0 -6.73 116.2 0 0 -14.02zm-361.8 -231.45l8.76 0 0 147.44 -20.09 0 -0.13 -4.48c-0.02,-0.75 -0.05,-1.5 -0.08,-2.25l11.54 0 0 -140.71zm-46.72 83.81c-7.75,-2.46 -16.11,-3.34 -24.3,-3.34 -3.2,0 -6.45,0.18 -9.66,0.45l0 117.39c0,1.41 0.02,3.73 0.11,6.46 -0.05,0.22 -6.2,0.22 -8.46,-1.01 -0.36,-5.06 -0.41,-9.84 -0.41,-12.17l0 -117.39c3.21,-0.27 6.46,-0.45 9.66,-0.45 10.72,0 21.75,1.49 31.3,6.1 0.63,1.28 1.21,2.6 1.76,3.96zm111.66 44.37l9.11 0 -3.93 75.81c-1.37,1.1 -7.18,1.41 -9.17,1.41l3.99 -77.22zm3.84 99.71l-1.19 24.29 -244.07 0 0 -6.73 235.31 0 0.84 -17.57 9.11 0zm-232.32 -300l-12.93 0 0 -6.73 12.67 0 0.19 0c0.05,1.19 0.08,2.43 0.08,3.71l0 3.01zm223.81 -20.21l8.73 0 0.52 115.87 -19.15 0 -0.56 -3.97c-0.13,-0.91 -0.26,-1.83 -0.4,-2.76l11.35 0 -0.49 -109.15zm-56.3 28.34c-14.83,-6.42 -32.3,-8.13 -47.66,-8.13 -6.69,0 -26.13,0.19 -31.86,3.89 -4.75,3.06 -5.14,15.77 -5.14,20.6l0 80.73 -8.76 1.25 0 -88.71c0,-4.83 0.39,-17.54 5.14,-20.6 5.73,-3.7 25.17,-3.89 31.86,-3.89 17.82,0 38.49,2.29 54.56,11.59 0.63,1.06 1.25,2.14 1.86,3.26zm-241.01 122.63c5.36,3.74 10.43,7.91 15.15,12.54 19.39,19.04 28.92,42.41 28.92,69.56 0,18.39 -4.95,35.63 -14.27,51.49 -9.59,16.32 -22.51,29.39 -38.71,39.2 -12.47,7.55 -26.56,12.14 -40.81,14.87 -19.76,3.79 -41.5,4.5 -61.59,4.5l-139.78 0 0 -6.73 131.02 0c20.08,0 41.83,-0.7 61.59,-4.5 14.25,-2.74 28.35,-7.32 40.81,-14.87 16.2,-9.81 29.12,-22.89 38.71,-39.21 9.32,-15.86 14.27,-33.1 14.27,-51.49 0,-27.15 -9.53,-50.52 -28.92,-69.56 -2.06,-2.03 -4.2,-3.96 -6.39,-5.81zm-230.63 -190.23l-20.46 0 0 -6.72 15.68 0c1.27,0 2.79,0.03 4.43,0.12 0.19,2.05 0.31,4.25 0.35,6.6zm230.84 -0.58c1.21,0.81 2.4,1.66 3.56,2.53 23.42,17.49 32.96,42.47 32.96,71.28 0,25.63 -10.5,47.14 -28.63,65.04 -10.44,10.3 -22.29,18.1 -35.14,23.82 -4.25,-3.79 -7.17,-5.29 -9.44,-6.42 13.11,-5.74 25.19,-13.63 35.82,-24.12 18.13,-17.89 28.63,-39.41 28.63,-65.04 0,-26.57 -8.12,-49.9 -27.77,-67.08zm1883.36 54.33c-4.76,-1.57 -10.01,-2.4 -15.81,-2.4 -24.68,0 -39.44,15.18 -48.7,36.97 -14.58,34.31 -16.53,85.97 -16.53,122.8 0,36.89 1.96,88.57 16.54,122.96 -1.97,-0.29 -6.45,-3.26 -8.76,-6.73 -14.57,-34.39 -16.53,-86.07 -16.53,-122.96 0,-36.82 1.95,-88.49 16.53,-122.8 9.26,-21.79 24.01,-36.97 48.69,-36.97 8.61,0 16.01,1.85 22.39,5.18 0.75,1.28 1.48,2.59 2.18,3.95zm-1443.08 96.99l-21.24 76.76 -10.63 0 26.62 -96.13 5.25 19.37zm-507.06 -146.42c-12.04,-3.58 -25.71,-4.32 -36.29,-4.32 -6.59,0 -26.4,0.28 -31.69,4.81 -4.81,4.13 -5.26,16.55 -5.26,22.26l0 105.8 -8.76 0.45 0 -112.98c0,-5.71 0.44,-18.13 5.25,-22.26 5.28,-4.53 25.1,-4.81 31.69,-4.81 12.74,0 29.96,1.06 43.41,6.88 0.58,1.33 1.12,2.72 1.64,4.16z"/>
 </g>
</svg>
